<svg id="visual" viewBox="0 0 900 600" width="900" height="600" xmlns="http://www.w3.org/2000/svg" xmlns:xlink="http://www.w3.org/1999/xlink" version="1.1"><rect x="0" y="0" width="900" height="600" fill="#ffffff"></rect><path d="M0 407L25 396.3C50 385.7 100 364.3 150 359.8C200 355.3 250 367.7 300 368.3C350 369 400 358 450 340.2C500 322.3 550 297.7 600 306.8C650 316 700 359 750 359.2C800 359.3 850 316.7 875 295.3L900 274L900 601L875 601C850 601 800 601 750 601C700 601 650 601 600 601C550 601 500 601 450 601C400 601 350 601 300 601C250 601 200 601 150 601C100 601 50 601 25 601L0 601Z" fill="#e6dcf5"></path><path d="M0 435L25 442.5C50 450 100 465 150 451.3C200 437.7 250 395.3 300 379.7C350 364 400 375 450 387.3C500 399.7 550 413.3 600 425.2C650 437 700 447 750 449C800 451 850 445 875 442L900 439L900 601L875 601C850 601 800 601 750 601C700 601 650 601 600 601C550 601 500 601 450 601C400 601 350 601 300 601C250 601 200 601 150 601C100 601 50 601 25 601L0 601Z" fill="#bfa8e6"></path><path d="M0 535L25 533.8C50 532.7 100 530.3 150 517.8C200 505.3 250 482.7 300 471.8C350 461 400 462 450 472C500 482 550 501 600 506.5C650 512 700 504 750 492.3C800 480.7 850 465.3 875 457.7L900 450L900 601L875 601C850 601 800 601 750 601C700 601 650 601 600 601C550 601 500 601 450 601C400 601 350 601 300 601C250 601 200 601 150 601C100 601 50 601 25 601L0 601Z" fill="#9576d6"></path></svg>