<svg id="visual" viewBox="0 0 600 900" width="600" height="900" xmlns="http://www.w3.org/2000/svg" xmlns:xlink="http://www.w3.org/1999/xlink" version="1.1"><rect width="600" height="900" fill="#ffffff"></rect><g><g transform="translate(348 670)"><path d="M106.8 -40.1C121.4 10.1 104.4 65.2 65.9 94C27.5 122.7 -32.5 125 -70.2 97.4C-107.8 69.9 -123.1 12.4 -107.7 -39C-92.3 -90.4 -46.2 -135.7 0 -135.7C46.1 -135.7 92.3 -90.3 106.8 -40.1Z" fill="#b197e1"></path></g><g transform="translate(205 219)"><path d="M115.9 -37.5C131.4 10.1 112.2 69 72.5 97.3C32.9 125.5 -27.3 122.9 -69.9 92.8C-112.5 62.6 -137.5 4.9 -122.9 -41.4C-108.3 -87.7 -54.2 -122.6 -2 -121.9C50.2 -121.3 100.4 -85.1 115.9 -37.5Z" fill="#b197e1"></path></g></g></svg>