<svg id="visual" viewBox="0 0 600 900" width="600" height="900" xmlns="http://www.w3.org/2000/svg" xmlns:xlink="http://www.w3.org/1999/xlink" version="1.1"><rect width="600" height="900" fill="#ffffff"></rect><g><g transform="translate(288 663)"><path d="M117.6 -33.6C135.2 15.9 120.3 80.5 80.7 108.7C41.1 136.9 -23.2 128.7 -71 94.6C-118.9 60.6 -150.2 0.8 -135.6 -44.5C-121 -89.9 -60.5 -120.7 -5.2 -119C50 -117.3 100.1 -83 117.6 -33.6Z" fill="#b197e1"></path></g><g transform="translate(401 271)"><path d="M125.3 -37.9C143.7 15.8 126.9 83.6 81.6 117.9C36.3 152.1 -37.5 152.6 -83.1 118.5C-128.8 84.4 -146.2 15.6 -127.6 -38.3C-109.1 -92.2 -54.5 -131.3 -0.5 -131.2C53.5 -131 107 -91.6 125.3 -37.9Z" fill="#b197e1"></path></g></g></svg>