<svg id="visual" viewBox="0 0 900 600" width="900" height="600" xmlns="http://www.w3.org/2000/svg" xmlns:xlink="http://www.w3.org/1999/xlink" version="1.1"><rect x="0" y="0" width="900" height="600" fill="#ffffff"></rect><defs><linearGradient id="grad1_0" x1="33.3%" y1="0%" x2="100%" y2="100%"><stop offset="20%" stop-color="#9576d6" stop-opacity="1"></stop><stop offset="80%" stop-color="#9576d6" stop-opacity="1"></stop></linearGradient></defs><defs><linearGradient id="grad1_1" x1="33.3%" y1="0%" x2="100%" y2="100%"><stop offset="20%" stop-color="#9576d6" stop-opacity="1"></stop><stop offset="80%" stop-color="#ccb9eb" stop-opacity="1"></stop></linearGradient></defs><defs><linearGradient id="grad1_2" x1="33.3%" y1="0%" x2="100%" y2="100%"><stop offset="20%" stop-color="#ffffff" stop-opacity="1"></stop><stop offset="80%" stop-color="#ccb9eb" stop-opacity="1"></stop></linearGradient></defs><defs><linearGradient id="grad2_0" x1="0%" y1="0%" x2="66.7%" y2="100%"><stop offset="20%" stop-color="#9576d6" stop-opacity="1"></stop><stop offset="80%" stop-color="#9576d6" stop-opacity="1"></stop></linearGradient></defs><defs><linearGradient id="grad2_1" x1="0%" y1="0%" x2="66.7%" y2="100%"><stop offset="20%" stop-color="#ccb9eb" stop-opacity="1"></stop><stop offset="80%" stop-color="#9576d6" stop-opacity="1"></stop></linearGradient></defs><defs><linearGradient id="grad2_2" x1="0%" y1="0%" x2="66.7%" y2="100%"><stop offset="20%" stop-color="#ccb9eb" stop-opacity="1"></stop><stop offset="80%" stop-color="#ffffff" stop-opacity="1"></stop></linearGradient></defs><g transform="translate(900, 0)"><path d="M0 351.5C-53.9 329.8 -107.8 308 -162.5 281.5C-217.2 254.9 -272.8 223.5 -304.4 175.8C-336.1 128.1 -343.8 64 -351.5 0L0 0Z" fill="#e6dcf5"></path><path d="M0 234.4C-35.9 219.9 -71.8 205.4 -108.3 187.6C-144.8 169.9 -181.9 149 -203 117.2C-224.1 85.4 -229.2 42.7 -234.4 0L0 0Z" fill="#b197e1"></path><path d="M0 117.2C-18 109.9 -35.9 102.7 -54.2 93.8C-72.4 85 -90.9 74.5 -101.5 58.6C-112 42.7 -114.6 21.3 -117.2 0L0 0Z" fill="#9576d6"></path></g><g transform="translate(0, 600)"><path d="M0 -351.5C54.2 -330.2 108.3 -309 163 -282.3C217.7 -255.7 272.9 -223.7 304.4 -175.8C336 -127.8 343.7 -63.9 351.5 0L0 0Z" fill="#e6dcf5"></path><path d="M0 -234.4C36.1 -220.2 72.2 -206 108.7 -188.2C145.1 -170.5 182 -149.1 203 -117.2C224 -85.2 229.2 -42.6 234.4 0L0 0Z" fill="#b197e1"></path><path d="M0 -117.2C18.1 -110.1 36.1 -103 54.3 -94.1C72.6 -85.2 91 -74.6 101.5 -58.6C112 -42.6 114.6 -21.3 117.2 0L0 0Z" fill="#9576d6"></path></g></svg>