<svg xmlns="http://www.w3.org/2000/svg" version="1.1" xmlns:xlink="http://www.w3.org/1999/xlink" xmlns:svgjs="http://svgjs.com/svgjs" width="1000" height="1000"><rect width="1000" height="1000" rx="200" ry="200" fill="#5e35b1"></rect><g transform="matrix(3.7593984962406015,0,0,3.7593984962406015,342.10526315789474,250)"><svg xmlns="http://www.w3.org/2000/svg" version="1.1" xmlns:xlink="http://www.w3.org/1999/xlink" xmlns:svgjs="http://svgjs.com/svgjs" width="84" height="133"><svg width="84" height="133" viewBox="0 0 84 133" fill="none" xmlns="http://www.w3.org/2000/svg">
<path fill-rule="evenodd" clip-rule="evenodd" d="M3 66.5V130H42H81V122.256C81 114.54 80.897 114.512 51.36 114.512H21.72V94.378V74.2439H46.68C71.225 74.2439 71.64 74.1138 71.64 66.5C71.64 58.8862 71.225 58.7561 46.68 58.7561H21.72V40.1707V21.5854H51.36H81V12.2927V3H42H3V66.5Z" fill="white"></path>
<path fill-rule="evenodd" clip-rule="evenodd" d="M3 66.5V130H42H81V122.256C81 114.54 80.897 114.512 51.36 114.512H21.72V94.378V74.2439H46.68C71.225 74.2439 71.64 74.1138 71.64 66.5C71.64 58.8862 71.225 58.7561 46.68 58.7561H21.72V40.1707V21.5854H51.36H81V12.2927V3H42H3V66.5Z" stroke="white" stroke-width="5"></path>
<path fill-rule="evenodd" clip-rule="evenodd" d="M3 66.5V130H42H81V122.256C81 114.54 80.897 114.512 51.36 114.512H21.72V94.378V74.2439H46.68C71.225 74.2439 71.64 74.1138 71.64 66.5C71.64 58.8862 71.225 58.7561 46.68 58.7561H21.72V40.1707V21.5854H51.36H81V12.2927V3H42H3V66.5Z" stroke="white" stroke-opacity="0.15" stroke-width="5"></path>
</svg></svg></g></svg>